<svg width="24" height="24" viewBox="0 0 24 24" fill="none" xmlns="http://www.w3.org/2000/svg">
<path d="M16.8516 0.0164051C16.7813 0.0210934 16.7133 0.0351562 16.7016 0.0492172C16.6875 0.060936 16.6383 0.0703125 16.5891 0.0703125C16.5398 0.0703125 16.5 0.0796871 16.5 0.09375C16.5 0.105469 16.4578 0.117188 16.4063 0.117188C16.3547 0.117188 16.3125 0.126562 16.3125 0.140625C16.3125 0.152344 16.282 0.164062 16.2422 0.164062C16.2047 0.164062 16.1719 0.173437 16.1719 0.1875C16.1719 0.199219 16.1414 0.210938 16.1016 0.210938C16.0641 0.210938 16.0313 0.220312 16.0313 0.234375C16.0313 0.246094 16.0008 0.257812 15.9609 0.257812C15.9234 0.257812 15.8906 0.267187 15.8906 0.28125C15.8906 0.292969 15.8695 0.304688 15.8461 0.304688C15.8203 0.304688 15.7922 0.314062 15.7852 0.328125C15.7781 0.339844 15.7453 0.351562 15.7125 0.351562C15.682 0.351562 15.6563 0.360937 15.6563 0.375C15.6563 0.386719 15.6352 0.398438 15.6094 0.398438C15.5836 0.398438 15.5625 0.407812 15.5625 0.421875C15.5625 0.433594 15.5414 0.445312 15.5156 0.445312C15.4898 0.445312 15.4688 0.454687 15.4688 0.46875C15.4688 0.480469 15.4477 0.492188 15.4219 0.492188C15.3961 0.492188 15.375 0.501562 15.375 0.515625C15.375 0.527344 15.3539 0.539062 15.3281 0.539062C15.3023 0.539062 15.2813 0.548437 15.2813 0.5625C15.2813 0.574219 15.2672 0.585938 15.2508 0.585938C15.2344 0.585938 15.1969 0.607031 15.1688 0.632812C15.1406 0.658592 15.1031 0.679688 15.082 0.679688C15.0633 0.679688 15.0469 0.689062 15.0469 0.698437C15.0469 0.710155 15.0188 0.733593 14.9836 0.752342C14.9461 0.771093 14.8969 0.803905 14.8734 0.824999C14.8477 0.848436 14.8148 0.867188 14.8008 0.867188C14.7867 0.867188 14.7609 0.888281 14.7422 0.914062C14.7234 0.939842 14.6953 0.960938 14.6813 0.960938C14.6672 0.960938 14.6133 1.00078 14.5641 1.05C14.5125 1.09687 14.4352 1.1625 14.3906 1.19531C14.2852 1.27031 14.0438 1.51172 13.9688 1.61719C13.9359 1.66172 13.8703 1.73906 13.8234 1.79062C13.7742 1.83984 13.7344 1.89375 13.7344 1.90781C13.7344 1.92188 13.7133 1.95 13.6875 1.96875C13.6617 1.9875 13.6406 2.01328 13.6406 2.02734C13.6406 2.03906 13.6078 2.08828 13.5703 2.13281C13.5328 2.17734 13.5 2.2289 13.5 2.24297C13.5 2.25937 13.4906 2.27344 13.4766 2.27344C13.4648 2.27344 13.4531 2.28984 13.4531 2.30859C13.4531 2.32969 13.432 2.36719 13.4062 2.39531C13.3805 2.42344 13.3594 2.46094 13.3594 2.47734C13.3594 2.49375 13.35 2.50781 13.3359 2.50781C13.3242 2.50781 13.3125 2.52891 13.3125 2.55469C13.3125 2.58047 13.3031 2.60156 13.2891 2.60156C13.2773 2.60156 13.2656 2.62266 13.2656 2.64844C13.2656 2.67422 13.2563 2.69531 13.2422 2.69531C13.2305 2.69531 13.2188 2.71641 13.2188 2.74219C13.2188 2.76797 13.2094 2.78906 13.1953 2.78906C13.1836 2.78906 13.1719 2.81016 13.1719 2.83594C13.1719 2.86172 13.1625 2.88281 13.1484 2.88281C13.1367 2.88281 13.125 2.90859 13.125 2.93906C13.125 2.97187 13.1156 3.00469 13.1016 3.01172C13.0898 3.01875 13.0781 3.04688 13.0781 3.07265C13.0781 3.09609 13.0688 3.11719 13.0547 3.11719C13.043 3.11719 13.0312 3.14766 13.0312 3.1875C13.0312 3.225 13.0219 3.25781 13.0078 3.25781C12.9961 3.25781 12.9844 3.28828 12.9844 3.32812C12.9844 3.36562 12.975 3.39844 12.9609 3.39844C12.9492 3.39844 12.9375 3.42891 12.9375 3.46875C12.9375 3.50625 12.9281 3.53906 12.9141 3.53906C12.9023 3.53906 12.8906 3.58125 12.8906 3.63281C12.8906 3.68437 12.8813 3.72656 12.8672 3.72656C12.8555 3.72656 12.8438 3.76875 12.8438 3.81797C12.8438 3.86953 12.8344 3.91875 12.8203 3.92578C12.8086 3.93281 12.7969 3.99844 12.7969 4.06875V4.19531H7.10156H1.40625V4.95937C1.40625 5.66719 1.40859 5.72812 1.44844 5.76328C1.47188 5.78437 1.51641 5.83828 1.54688 5.88281C1.57969 5.92734 1.67578 6.03516 1.7625 6.12187C1.85156 6.20859 1.92188 6.28828 1.92188 6.30234C1.92188 6.31406 2.00391 6.40781 2.10469 6.50859C2.20547 6.60938 2.31328 6.7289 2.34375 6.77344C2.37422 6.81797 2.45859 6.91406 2.53125 6.98438C2.60391 7.05469 2.68828 7.15078 2.71875 7.19531C2.75156 7.23984 2.84766 7.34766 2.93438 7.43437C3.02344 7.52109 3.09375 7.60078 3.09375 7.6125C3.09375 7.62656 3.18984 7.73203 3.30469 7.85156C3.42188 7.97109 3.51562 8.07656 3.51562 8.09062C3.51562 8.10234 3.58594 8.18203 3.675 8.26875C3.76172 8.35547 3.85781 8.46328 3.89062 8.50781C3.92109 8.55234 4.00547 8.64844 4.07812 8.71875C4.15078 8.78906 4.23516 8.88516 4.26562 8.92969C4.29844 8.97422 4.39453 9.08203 4.48125 9.16875C4.57031 9.25547 4.64063 9.33516 4.64063 9.34922C4.64063 9.36094 4.72266 9.45469 4.82344 9.55547C4.92422 9.65625 5.03203 9.77578 5.0625 9.82031C5.09297 9.86484 5.17734 9.96094 5.25 10.0312C5.32266 10.1016 5.40703 10.1977 5.4375 10.2422C5.47031 10.2867 5.56641 10.3945 5.65313 10.4812C5.74219 10.568 5.8125 10.6477 5.8125 10.6617C5.8125 10.6734 5.89453 10.7672 5.99531 10.868C6.09609 10.9687 6.20391 11.0883 6.23438 11.1328C6.26484 11.1773 6.34922 11.2734 6.42188 11.3437C6.49453 11.4141 6.57891 11.5102 6.60938 11.5547C6.64219 11.5992 6.73828 11.707 6.825 11.7937C6.91406 11.8805 6.98438 11.9602 6.98438 11.9742C6.98438 11.9859 7.06641 12.0797 7.16719 12.1805C7.26797 12.2812 7.37578 12.4008 7.40625 12.4453C7.43672 12.4898 7.52109 12.5859 7.59375 12.6562C7.66641 12.7266 7.75078 12.8227 7.78125 12.8672C7.81406 12.9117 7.91016 13.0195 7.99688 13.1062C8.08594 13.193 8.15625 13.2727 8.15625 13.2844C8.15625 13.2984 8.25234 13.4039 8.36719 13.5234C8.48438 13.643 8.57813 13.7484 8.57813 13.7625C8.57813 13.7742 8.64844 13.8539 8.7375 13.9406C8.82422 14.0273 8.92031 14.1352 8.95313 14.1797C8.98359 14.2242 9.04922 14.3016 9.09844 14.3484L9.1875 14.4328V17.7984C9.1875 20.0156 9.18047 21.1664 9.16406 21.1758C9.15 21.1828 9.14063 21.2578 9.14063 21.3398C9.14063 21.4219 9.12891 21.4969 9.11719 21.5039C9.10313 21.5109 9.09375 21.5437 9.09375 21.5742C9.09375 21.6047 9.08203 21.6375 9.07031 21.6445C9.05625 21.6516 9.04688 21.6844 9.04688 21.7172C9.04688 21.7477 9.0375 21.7734 9.02344 21.7734C9.01172 21.7734 9 21.7875 9 21.8039C9 21.8203 8.97891 21.8578 8.95313 21.8859C8.92734 21.9141 8.90625 21.9469 8.90625 21.9586C8.90625 21.9891 8.60625 22.2891 8.57578 22.2891C8.56406 22.2891 8.53125 22.3102 8.50313 22.3359C8.475 22.3617 8.4375 22.3828 8.42109 22.3828C8.40469 22.3828 8.39063 22.3922 8.39063 22.4062C8.39063 22.418 8.36484 22.4297 8.33438 22.4297C8.30156 22.4297 8.26875 22.4391 8.26172 22.4531C8.25469 22.4648 8.21719 22.4766 8.17734 22.4766C8.13984 22.4766 8.10938 22.4859 8.10938 22.5C8.10938 22.5141 8.04375 22.5234 7.95938 22.5234C7.875 22.5234 7.8 22.5352 7.79297 22.5469C7.78359 22.5609 7.28438 22.5703 6.37266 22.5703H4.96875V23.2852V24H9.91406H14.8594V23.2852V22.5703H13.4555C12.5438 22.5703 12.0445 22.5609 12.0352 22.5469C12.0281 22.5352 11.9531 22.5234 11.8711 22.5234C11.7891 22.5234 11.7141 22.5141 11.707 22.5C11.7 22.4883 11.6672 22.4766 11.6367 22.4766C11.6063 22.4766 11.5734 22.4648 11.5664 22.4531C11.5594 22.4391 11.5266 22.4297 11.4938 22.4297C11.4633 22.4297 11.4375 22.418 11.4375 22.4062C11.4375 22.3922 11.4234 22.3828 11.407 22.3828C11.3906 22.3828 11.3531 22.3617 11.325 22.3359C11.2969 22.3102 11.2641 22.2891 11.2523 22.2891C11.2219 22.2891 10.9219 21.9891 10.9219 21.9586C10.9219 21.9469 10.9008 21.9141 10.875 21.8859C10.8492 21.8578 10.8281 21.8203 10.8281 21.8039C10.8281 21.7875 10.8188 21.7734 10.8047 21.7734C10.793 21.7734 10.7812 21.7477 10.7812 21.7172C10.7812 21.6844 10.7719 21.6516 10.7578 21.6445C10.7461 21.6375 10.7344 21.6047 10.7344 21.5742C10.7344 21.5437 10.7227 21.5109 10.7109 21.5039C10.6992 21.4969 10.6875 21.4219 10.6875 21.3398C10.6875 21.2578 10.6781 21.1828 10.6641 21.1758C10.6477 21.1664 10.6406 20.0156 10.6406 17.7984V14.4328L10.7297 14.3484C10.7789 14.3016 10.8445 14.2242 10.875 14.1797C10.9055 14.1352 11.0133 14.0156 11.1141 13.9148C11.2148 13.8141 11.2969 13.7203 11.2969 13.7086C11.2969 13.6969 11.3813 13.6031 11.4844 13.4977C11.5875 13.3945 11.6719 13.2984 11.6719 13.2867C11.6719 13.2727 11.7422 13.193 11.8313 13.1062C11.918 13.0195 12.0141 12.9117 12.0469 12.8672C12.0773 12.8227 12.1852 12.7031 12.2859 12.6023C12.3867 12.5016 12.4688 12.4078 12.4688 12.3961C12.4688 12.3844 12.5531 12.2906 12.6562 12.1852C12.7594 12.082 12.8438 11.9859 12.8438 11.9742C12.8438 11.9602 12.9141 11.8805 13.0031 11.7937C13.0898 11.707 13.1859 11.5992 13.2188 11.5547C13.2492 11.5102 13.3336 11.4141 13.4062 11.3437C13.4789 11.2734 13.5633 11.1773 13.5938 11.1328C13.6242 11.0883 13.732 10.9687 13.8328 10.868C13.9336 10.7672 14.0156 10.6734 14.0156 10.6617C14.0156 10.6477 14.0859 10.568 14.175 10.4812C14.2617 10.3945 14.3578 10.2867 14.3906 10.2422C14.4211 10.1977 14.5055 10.1016 14.5781 10.0312C14.6508 9.96094 14.7352 9.86484 14.7656 9.82031C14.7961 9.77578 14.9039 9.65625 15.0047 9.55547C15.1055 9.45469 15.1875 9.36094 15.1875 9.34922C15.1875 9.33516 15.2063 9.30703 15.2273 9.28594C15.2555 9.25781 15.2695 9.25547 15.2766 9.27656C15.2813 9.29062 15.3047 9.30469 15.3305 9.30469C15.3539 9.30469 15.375 9.31406 15.375 9.32812C15.375 9.33984 15.3961 9.35156 15.4219 9.35156C15.4477 9.35156 15.4688 9.36094 15.4688 9.375C15.4688 9.38672 15.4898 9.39844 15.5156 9.39844C15.5414 9.39844 15.5625 9.40781 15.5625 9.42187C15.5625 9.43359 15.5836 9.44531 15.6094 9.44531C15.6352 9.44531 15.6563 9.45469 15.6563 9.46875C15.6563 9.48047 15.6773 9.49219 15.7008 9.49219C15.7266 9.49219 15.7547 9.50156 15.7617 9.51562C15.7688 9.52734 15.8016 9.53906 15.8344 9.53906C15.8648 9.53906 15.8906 9.54844 15.8906 9.5625C15.8906 9.57422 15.9234 9.58594 15.9609 9.58594C16.0008 9.58594 16.0313 9.59531 16.0313 9.60937C16.0313 9.62109 16.0641 9.63281 16.1016 9.63281C16.1414 9.63281 16.1719 9.64219 16.1719 9.65625C16.1719 9.66797 16.2047 9.67969 16.2422 9.67969C16.282 9.67969 16.3125 9.68906 16.3125 9.70312C16.3125 9.71484 16.3547 9.72656 16.4063 9.72656C16.4578 9.72656 16.5 9.73594 16.5 9.75C16.5 9.76172 16.5422 9.77344 16.5914 9.77344C16.643 9.77344 16.6922 9.78281 16.6992 9.79687C16.7063 9.80859 16.7695 9.82031 16.8398 9.82031C16.9102 9.82031 16.9734 9.82969 16.9805 9.84375C16.9898 9.85781 17.25 9.86719 17.6859 9.86719C18.1289 9.86719 18.375 9.85781 18.375 9.84375C18.375 9.82969 18.4406 9.82031 18.525 9.82031C18.6094 9.82031 18.6844 9.80859 18.6914 9.79687C18.6984 9.78281 18.7477 9.77344 18.7992 9.77344C18.8484 9.77344 18.8906 9.76172 18.8906 9.75C18.8906 9.73594 18.9328 9.72656 18.9844 9.72656C19.0359 9.72656 19.0781 9.71484 19.0781 9.70312C19.0781 9.68906 19.1109 9.67969 19.1484 9.67969C19.1883 9.67969 19.2188 9.66797 19.2188 9.65625C19.2188 9.64219 19.2516 9.63281 19.2891 9.63281C19.3289 9.63281 19.3594 9.62109 19.3594 9.60937C19.3594 9.59531 19.3922 9.58594 19.4297 9.58594C19.4695 9.58594 19.5 9.57422 19.5 9.5625C19.5 9.54844 19.5211 9.53906 19.5445 9.53906C19.5703 9.53906 19.5984 9.52734 19.6055 9.51562C19.6125 9.50156 19.6453 9.49219 19.6781 9.49219C19.7086 9.49219 19.7344 9.48047 19.7344 9.46875C19.7344 9.45469 19.7555 9.44531 19.7812 9.44531C19.807 9.44531 19.8281 9.43359 19.8281 9.42187C19.8281 9.40781 19.8492 9.39844 19.875 9.39844C19.9008 9.39844 19.9219 9.38672 19.9219 9.375C19.9219 9.36094 19.943 9.35156 19.9688 9.35156C19.9945 9.35156 20.0156 9.33984 20.0156 9.32812C20.0156 9.31406 20.0367 9.30469 20.0625 9.30469C20.0883 9.30469 20.1094 9.29297 20.1094 9.28125C20.1094 9.26719 20.1234 9.25781 20.1398 9.25781C20.1562 9.25781 20.1938 9.23672 20.2219 9.21094C20.25 9.18516 20.2875 9.16406 20.3086 9.16406C20.3273 9.16406 20.3438 9.15234 20.3438 9.14062C20.3438 9.12656 20.3578 9.11719 20.3742 9.11719C20.3883 9.11719 20.4398 9.08437 20.4844 9.04687C20.5289 9.00937 20.5781 8.97656 20.5898 8.97656C20.6039 8.97656 20.6297 8.95547 20.6484 8.92969C20.6672 8.90391 20.6953 8.88281 20.7094 8.88281C20.7258 8.88281 20.7914 8.83125 20.857 8.76562C20.9227 8.70234 20.9859 8.64844 21 8.64844C21.0281 8.64844 21.4219 8.25469 21.4219 8.22656C21.4219 8.2125 21.4758 8.14922 21.5391 8.08359C21.6047 8.01797 21.6562 7.95234 21.6562 7.93594C21.6562 7.92188 21.6773 7.89375 21.7031 7.875C21.7289 7.85625 21.75 7.83047 21.75 7.81641C21.75 7.80234 21.7688 7.76953 21.7922 7.74375C21.8133 7.72031 21.8461 7.67109 21.8648 7.63359C21.8836 7.59844 21.907 7.57031 21.9188 7.57031C21.9281 7.57031 21.9375 7.55391 21.9375 7.53516C21.9375 7.51406 21.9586 7.47656 21.9844 7.44844C22.0102 7.42031 22.0312 7.38281 22.0312 7.36641C22.0312 7.35 22.043 7.33594 22.0547 7.33594C22.0688 7.33594 22.0781 7.31484 22.0781 7.28906C22.0781 7.26328 22.0898 7.24219 22.1016 7.24219C22.1156 7.24219 22.125 7.22109 22.125 7.19531C22.125 7.16953 22.1367 7.14844 22.1484 7.14844C22.1625 7.14844 22.1719 7.12734 22.1719 7.10156C22.1719 7.07578 22.1836 7.05469 22.1953 7.05469C22.2094 7.05469 22.2188 7.03359 22.2188 7.00781C22.2188 6.98203 22.2305 6.96094 22.2422 6.96094C22.2563 6.96094 22.2656 6.93516 22.2656 6.90469C22.2656 6.87187 22.2773 6.83906 22.2891 6.83203C22.3031 6.825 22.3125 6.79688 22.3125 6.77109C22.3125 6.74766 22.3242 6.72656 22.3359 6.72656C22.35 6.72656 22.3594 6.69375 22.3594 6.65625C22.3594 6.61641 22.3711 6.58594 22.3828 6.58594C22.3969 6.58594 22.4062 6.55312 22.4062 6.51562C22.4062 6.47578 22.418 6.44531 22.4297 6.44531C22.4438 6.44531 22.4531 6.4125 22.4531 6.375C22.4531 6.33516 22.4648 6.30469 22.4766 6.30469C22.4906 6.30469 22.5 6.2625 22.5 6.21094C22.5 6.15937 22.5117 6.11719 22.5234 6.11719C22.5375 6.11719 22.5469 6.07031 22.5469 6.01406C22.5469 5.95547 22.5586 5.90156 22.5703 5.89453C22.5844 5.8875 22.5938 5.82422 22.5938 5.75391C22.5938 5.68359 22.6055 5.62031 22.6172 5.61328C22.6313 5.6039 22.6406 5.34844 22.6406 4.92188C22.6406 4.49531 22.6313 4.23984 22.6172 4.23047C22.6055 4.22344 22.5938 4.15312 22.5938 4.07812C22.5938 4.00312 22.5844 3.93281 22.5703 3.92578C22.5586 3.91875 22.5469 3.86953 22.5469 3.81797C22.5469 3.76875 22.5375 3.72656 22.5234 3.72656C22.5117 3.72656 22.5 3.68437 22.5 3.63281C22.5 3.58125 22.4906 3.53906 22.4766 3.53906C22.4648 3.53906 22.4531 3.50625 22.4531 3.46875C22.4531 3.42891 22.4438 3.39844 22.4297 3.39844C22.418 3.39844 22.4062 3.36562 22.4062 3.32812C22.4062 3.28828 22.3969 3.25781 22.3828 3.25781C22.3711 3.25781 22.3594 3.225 22.3594 3.1875C22.3594 3.14766 22.35 3.11719 22.3359 3.11719C22.3242 3.11719 22.3125 3.09609 22.3125 3.07265C22.3125 3.04688 22.3031 3.01875 22.2891 3.01172C22.2773 3.00469 22.2656 2.97187 22.2656 2.93906C22.2656 2.90859 22.2563 2.88281 22.2422 2.88281C22.2305 2.88281 22.2188 2.86172 22.2188 2.83594C22.2188 2.81016 22.2094 2.78906 22.1953 2.78906C22.1836 2.78906 22.1719 2.76797 22.1719 2.74219C22.1719 2.71641 22.1625 2.69531 22.1484 2.69531C22.1367 2.69531 22.125 2.67422 22.125 2.64844C22.125 2.62266 22.1156 2.60156 22.1016 2.60156C22.0898 2.60156 22.0781 2.58047 22.0781 2.55469C22.0781 2.52891 22.0688 2.50781 22.0547 2.50781C22.043 2.50781 22.0312 2.49375 22.0312 2.47734C22.0312 2.46094 22.0102 2.42344 21.9844 2.39531C21.9586 2.36719 21.9375 2.32969 21.9375 2.30859C21.9375 2.28984 21.9281 2.27344 21.9188 2.27344C21.907 2.27344 21.8836 2.24531 21.8648 2.20781C21.8461 2.17266 21.8133 2.12344 21.7922 2.1C21.7688 2.07422 21.75 2.0414 21.75 2.02734C21.75 2.01328 21.7289 1.9875 21.7031 1.96875C21.6773 1.95 21.6562 1.92188 21.6562 1.90781C21.6562 1.89141 21.6047 1.82578 21.5391 1.76015C21.4758 1.69453 21.4219 1.63125 21.4219 1.61719C21.4219 1.58906 21.0281 1.19531 21 1.19531C20.9859 1.19531 20.9227 1.14141 20.857 1.07812C20.7914 1.0125 20.7258 0.960938 20.7094 0.960938C20.6953 0.960938 20.6672 0.939842 20.6484 0.914062C20.6297 0.888281 20.6039 0.867188 20.5898 0.867188C20.5781 0.867188 20.5289 0.834373 20.4844 0.796875C20.4398 0.759375 20.3883 0.726562 20.3742 0.726562C20.3578 0.726562 20.3438 0.714844 20.3438 0.703125C20.3438 0.689062 20.3273 0.679688 20.3086 0.679688C20.2875 0.679688 20.25 0.658592 20.2219 0.632812C20.1938 0.607031 20.1562 0.585938 20.1398 0.585938C20.1234 0.585938 20.1094 0.574219 20.1094 0.5625C20.1094 0.548437 20.0883 0.539062 20.0625 0.539062C20.0367 0.539062 20.0156 0.527344 20.0156 0.515625C20.0156 0.501562 19.9945 0.492188 19.9688 0.492188C19.943 0.492188 19.9219 0.480469 19.9219 0.46875C19.9219 0.454687 19.9008 0.445312 19.875 0.445312C19.8492 0.445312 19.8281 0.433594 19.8281 0.421875C19.8281 0.407812 19.807 0.398438 19.7812 0.398438C19.7555 0.398438 19.7344 0.386719 19.7344 0.375C19.7344 0.360937 19.7086 0.351562 19.6781 0.351562C19.6453 0.351562 19.6125 0.339844 19.6055 0.328125C19.5984 0.314062 19.5703 0.304688 19.5445 0.304688C19.5211 0.304688 19.5 0.292969 19.5 0.28125C19.5 0.267187 19.4695 0.257812 19.4297 0.257812C19.3922 0.257812 19.3594 0.246094 19.3594 0.234375C19.3594 0.220312 19.3289 0.210938 19.2891 0.210938C19.2516 0.210938 19.2188 0.199219 19.2188 0.1875C19.2188 0.173437 19.1883 0.164062 19.1484 0.164062C19.1109 0.164062 19.0781 0.152344 19.0781 0.140625C19.0781 0.126562 19.0359 0.117188 18.9844 0.117188C18.9328 0.117188 18.8906 0.105469 18.8906 0.09375C18.8906 0.0796871 18.8508 0.0703125 18.8016 0.0703125C18.7523 0.0703125 18.6984 0.0562496 18.6844 0.0421867C18.6633 0.0210934 18.443 0.0117188 17.8172 0.00937462C17.3578 0.00703049 16.9219 0.00937462 16.8516 0.0164051ZM18.2344 1.50234C18.2344 1.51406 18.2883 1.52344 18.3516 1.52344C18.4172 1.52344 18.4688 1.53281 18.4688 1.54688C18.4688 1.55859 18.5109 1.57031 18.5625 1.57031C18.6141 1.57031 18.6562 1.57969 18.6562 1.59375C18.6562 1.60547 18.6891 1.61719 18.7266 1.61719C18.7664 1.61719 18.7969 1.62656 18.7969 1.64062C18.7969 1.65234 18.8297 1.66406 18.8672 1.66406C18.907 1.66406 18.9375 1.67344 18.9375 1.6875C18.9375 1.69922 18.9586 1.71094 18.9844 1.71094C19.0102 1.71094 19.0312 1.72031 19.0312 1.73438C19.0312 1.74609 19.0523 1.75781 19.0781 1.75781C19.1039 1.75781 19.125 1.76719 19.125 1.78125C19.125 1.79297 19.1461 1.80469 19.1719 1.80469C19.1977 1.80469 19.2188 1.81406 19.2188 1.82812C19.2188 1.83984 19.2398 1.85156 19.2656 1.85156C19.2914 1.85156 19.3125 1.86094 19.3125 1.875C19.3125 1.88672 19.3336 1.89844 19.3594 1.89844C19.3852 1.89844 19.4062 1.90781 19.4062 1.92188C19.4062 1.93359 19.425 1.94531 19.4484 1.94531C19.4719 1.94531 19.5047 1.96641 19.5234 1.99219C19.5422 2.01797 19.5727 2.03906 19.5938 2.03906C19.6148 2.03906 19.6453 2.06016 19.6641 2.08594C19.6828 2.11172 19.7133 2.13281 19.7297 2.13281C19.7461 2.13281 19.8 2.17266 19.8469 2.22187C19.8938 2.27109 19.9711 2.33672 20.0156 2.36719C20.1188 2.43984 20.1773 2.49844 20.25 2.60156C20.2805 2.64609 20.3461 2.72344 20.3953 2.77031C20.4445 2.81719 20.4844 2.87109 20.4844 2.8875C20.4844 2.90391 20.5055 2.93437 20.5312 2.95312C20.557 2.97187 20.5781 3.00234 20.5781 3.02344C20.5781 3.04453 20.5992 3.075 20.625 3.09375C20.6508 3.1125 20.6719 3.14531 20.6719 3.16875C20.6719 3.19219 20.6836 3.21094 20.6953 3.21094C20.7094 3.21094 20.7188 3.23203 20.7188 3.25781C20.7188 3.28359 20.7305 3.30469 20.7422 3.30469C20.7563 3.30469 20.7656 3.32578 20.7656 3.35156C20.7656 3.37734 20.7773 3.39844 20.7891 3.39844C20.8031 3.39844 20.8125 3.41953 20.8125 3.44531C20.8125 3.47109 20.8242 3.49219 20.8359 3.49219C20.85 3.49219 20.8594 3.51328 20.8594 3.53906C20.8594 3.56484 20.8711 3.58594 20.8828 3.58594C20.8969 3.58594 20.9062 3.60703 20.9062 3.63047C20.9062 3.65625 20.918 3.68437 20.9297 3.69141C20.9438 3.69844 20.9531 3.73125 20.9531 3.76406C20.9531 3.79453 20.9648 3.82031 20.9766 3.82031C20.9906 3.82031 21 3.85078 21 3.89062C21 3.92812 21.0117 3.96094 21.0234 3.96094C21.0375 3.96094 21.0469 4.00312 21.0469 4.05469C21.0469 4.10625 21.0586 4.14844 21.0703 4.14844C21.0844 4.14844 21.0938 4.2 21.0938 4.26562C21.0938 4.32891 21.1055 4.38281 21.1172 4.38281C21.1313 4.38281 21.1406 4.57734 21.1406 4.92188C21.1406 5.26641 21.1313 5.46094 21.1172 5.46094C21.1055 5.46094 21.0938 5.5125 21.0938 5.57812C21.0938 5.64141 21.0844 5.69531 21.0703 5.69531C21.0586 5.69531 21.0469 5.7375 21.0469 5.78906C21.0469 5.84062 21.0375 5.88281 21.0234 5.88281C21.0117 5.88281 21 5.91328 21 5.95312C21 5.99062 20.9906 6.02344 20.9766 6.02344C20.9648 6.02344 20.9531 6.04922 20.9531 6.07969C20.9531 6.1125 20.9438 6.14531 20.9297 6.15234C20.918 6.15937 20.9062 6.1875 20.9062 6.21328C20.9062 6.23672 20.8969 6.25781 20.8828 6.25781C20.8711 6.25781 20.8594 6.27891 20.8594 6.30469C20.8594 6.33047 20.85 6.35156 20.8359 6.35156C20.8242 6.35156 20.8125 6.37266 20.8125 6.39844C20.8125 6.42422 20.8031 6.44531 20.7891 6.44531C20.7773 6.44531 20.7656 6.46641 20.7656 6.49219C20.7656 6.51797 20.7563 6.53906 20.7422 6.53906C20.7305 6.53906 20.7188 6.56016 20.7188 6.58594C20.7188 6.61172 20.7094 6.63281 20.6953 6.63281C20.6836 6.63281 20.6719 6.65156 20.6719 6.675C20.6719 6.69844 20.6508 6.73125 20.625 6.75C20.5992 6.76875 20.5781 6.79922 20.5781 6.82031C20.5781 6.84141 20.557 6.87187 20.5312 6.89062C20.5055 6.90937 20.4844 6.9375 20.4844 6.95156C20.4844 6.96562 20.4445 7.01953 20.3953 7.06875C20.3484 7.12031 20.2828 7.19765 20.25 7.24219C20.1773 7.34531 20.1188 7.40391 20.0156 7.47656C19.9711 7.50703 19.8938 7.57265 19.8469 7.62187C19.8 7.67109 19.7461 7.71094 19.7297 7.71094C19.7133 7.71094 19.6828 7.73203 19.6641 7.75781C19.6453 7.78359 19.6148 7.80469 19.5938 7.80469C19.5727 7.80469 19.5422 7.82578 19.5234 7.85156C19.5047 7.87734 19.4719 7.89844 19.4484 7.89844C19.425 7.89844 19.4062 7.90781 19.4062 7.92188C19.4062 7.93359 19.3852 7.94531 19.3594 7.94531C19.3336 7.94531 19.3125 7.95469 19.3125 7.96875C19.3125 7.98047 19.2914 7.99219 19.2656 7.99219C19.2398 7.99219 19.2188 8.00156 19.2188 8.01562C19.2188 8.02734 19.1977 8.03906 19.1719 8.03906C19.1461 8.03906 19.125 8.04844 19.125 8.0625C19.125 8.07422 19.1039 8.08594 19.0781 8.08594C19.0523 8.08594 19.0312 8.09531 19.0312 8.10937C19.0312 8.12109 19.0102 8.13281 18.9867 8.13281C18.9609 8.13281 18.9328 8.14219 18.9258 8.15625C18.9188 8.16797 18.8859 8.17969 18.8531 8.17969C18.8227 8.17969 18.7969 8.18906 18.7969 8.20312C18.7969 8.21484 18.7664 8.22656 18.7266 8.22656C18.6891 8.22656 18.6562 8.23594 18.6562 8.25C18.6562 8.26172 18.6141 8.27344 18.5625 8.27344C18.5109 8.27344 18.4688 8.28281 18.4688 8.29687C18.4688 8.30859 18.4172 8.32031 18.3516 8.32031C18.2883 8.32031 18.2344 8.32969 18.2344 8.34375C18.2344 8.35781 18.1336 8.36719 17.9789 8.36719C17.7961 8.36719 17.7188 8.37656 17.7094 8.39531C17.6977 8.41875 17.693 8.41875 17.6813 8.39531C17.6719 8.37656 17.5945 8.36719 17.4117 8.36719C17.257 8.36719 17.1563 8.35781 17.1563 8.34375C17.1563 8.32969 17.1047 8.32031 17.0391 8.32031C16.9758 8.32031 16.9219 8.30859 16.9219 8.29687C16.9219 8.28281 16.8797 8.27344 16.8281 8.27344C16.7766 8.27344 16.7344 8.26172 16.7344 8.25C16.7344 8.23594 16.7039 8.22656 16.6641 8.22656C16.6266 8.22656 16.5938 8.21484 16.5938 8.20312C16.5938 8.18906 16.5633 8.17969 16.5234 8.17969C16.4859 8.17969 16.4531 8.16797 16.4531 8.15625C16.4531 8.14219 16.4367 8.13281 16.4156 8.13281C16.3969 8.13281 16.3641 8.11875 16.3453 8.1C16.3172 8.07187 16.343 8.03672 16.5234 7.85156C16.6406 7.73203 16.7344 7.62656 16.7344 7.6125C16.7344 7.60078 16.8047 7.52109 16.8938 7.43437C16.9805 7.34766 17.0766 7.23984 17.1094 7.19531C17.1398 7.15078 17.2242 7.05469 17.2969 6.98438C17.3695 6.91406 17.4539 6.81797 17.4844 6.77344C17.5148 6.7289 17.6227 6.60938 17.7234 6.50859C17.8242 6.40781 17.9062 6.31406 17.9062 6.30234C17.9062 6.28828 17.9766 6.20859 18.0656 6.12187C18.1523 6.03516 18.2484 5.92734 18.2812 5.88281C18.3117 5.83828 18.3563 5.78437 18.3797 5.76328C18.4195 5.72812 18.4219 5.66719 18.4219 4.95937V4.19531H16.3594C15 4.19531 14.2969 4.18828 14.2969 4.17188C14.2969 4.15781 14.3086 4.14844 14.3203 4.14844C14.3344 4.14844 14.3438 4.10625 14.3438 4.05469C14.3438 4.00312 14.3555 3.96094 14.3672 3.96094C14.3813 3.96094 14.3906 3.92812 14.3906 3.89062C14.3906 3.85078 14.4023 3.82031 14.4141 3.82031C14.4281 3.82031 14.4375 3.79453 14.4375 3.76406C14.4375 3.73125 14.4492 3.69844 14.4609 3.69141C14.475 3.68437 14.4844 3.65625 14.4844 3.63047C14.4844 3.60703 14.4961 3.58594 14.5078 3.58594C14.5219 3.58594 14.5313 3.56484 14.5313 3.53906C14.5313 3.51328 14.543 3.49219 14.5547 3.49219C14.5688 3.49219 14.5781 3.47109 14.5781 3.44531C14.5781 3.41953 14.5898 3.39844 14.6016 3.39844C14.6156 3.39844 14.625 3.37734 14.625 3.35156C14.625 3.32578 14.6367 3.30469 14.6484 3.30469C14.6625 3.30469 14.6719 3.28359 14.6719 3.25781C14.6719 3.23203 14.6836 3.21094 14.6953 3.21094C14.7094 3.21094 14.7188 3.19219 14.7188 3.16875C14.7188 3.14531 14.7398 3.1125 14.7656 3.09375C14.7914 3.075 14.8125 3.04453 14.8125 3.02344C14.8125 3.00234 14.8336 2.97187 14.8594 2.95312C14.8852 2.93437 14.9063 2.90625 14.9063 2.89219C14.9063 2.87812 14.9461 2.82422 14.9953 2.77266C15.0422 2.72344 15.1102 2.64609 15.143 2.60156C15.2367 2.47734 15.2859 2.42812 15.375 2.36719C15.4195 2.33437 15.4969 2.26875 15.5484 2.22187C15.5977 2.17266 15.6516 2.13281 15.6656 2.13281C15.6797 2.13281 15.7078 2.11172 15.7266 2.08594C15.7453 2.06016 15.7758 2.03906 15.7969 2.03906C15.818 2.03906 15.8484 2.01797 15.8672 1.99219C15.8859 1.96641 15.9188 1.94531 15.9422 1.94531C15.9656 1.94531 15.9844 1.93359 15.9844 1.92188C15.9844 1.90781 16.0055 1.89844 16.0313 1.89844C16.057 1.89844 16.0781 1.88672 16.0781 1.875C16.0781 1.86094 16.0992 1.85156 16.125 1.85156C16.1508 1.85156 16.1719 1.83984 16.1719 1.82812C16.1719 1.81406 16.193 1.80469 16.2188 1.80469C16.2445 1.80469 16.2656 1.79297 16.2656 1.78125C16.2656 1.76719 16.2867 1.75781 16.3125 1.75781C16.3383 1.75781 16.3594 1.74609 16.3594 1.73438C16.3594 1.72031 16.3805 1.71094 16.4039 1.71094C16.4297 1.71094 16.4578 1.69922 16.4648 1.6875C16.4719 1.67344 16.5047 1.66406 16.5375 1.66406C16.568 1.66406 16.5938 1.65234 16.5938 1.64062C16.5938 1.62656 16.6266 1.61719 16.6641 1.61719C16.7039 1.61719 16.7344 1.60547 16.7344 1.59375C16.7344 1.57969 16.7766 1.57031 16.8281 1.57031C16.8797 1.57031 16.9219 1.55859 16.9219 1.54688C16.9219 1.53281 16.9758 1.52344 17.0391 1.52344C17.1047 1.52344 17.1563 1.51406 17.1563 1.5C17.1563 1.48828 17.2711 1.47422 17.4211 1.47187C17.8195 1.4625 18.2344 1.47656 18.2344 1.50234ZM16.4063 5.67188C16.4063 5.68359 16.3969 5.69531 16.3875 5.69531C16.3758 5.69531 16.3523 5.72344 16.3336 5.75859C16.3148 5.79609 16.2328 5.89219 16.1484 5.97656C16.0641 6.06094 15.9703 6.1664 15.9375 6.21094C15.907 6.25547 15.8227 6.35156 15.75 6.42188C15.6773 6.49219 15.593 6.58828 15.5625 6.63281C15.5297 6.67734 15.4336 6.78516 15.3469 6.87187C15.2578 6.95859 15.1875 7.03828 15.1875 7.05C15.1875 7.06406 15.0938 7.16953 14.9766 7.28906C14.8617 7.40859 14.7656 7.51406 14.7656 7.52812C14.7656 7.53984 14.6953 7.61953 14.6063 7.70625C14.5195 7.79297 14.4234 7.90078 14.3906 7.94531C14.3602 7.98984 14.2734 8.08594 14.2008 8.15625C14.1305 8.22891 14.0508 8.31562 14.0297 8.35078L13.9875 8.41406H9.91406H5.84063L5.79844 8.35078C5.77734 8.31562 5.69766 8.22891 5.62734 8.15625C5.55469 8.08594 5.46797 7.98984 5.4375 7.94531C5.40469 7.90078 5.30859 7.79297 5.22188 7.70625C5.13281 7.61953 5.0625 7.53984 5.0625 7.52578C5.0625 7.51406 4.97813 7.41797 4.875 7.31484C4.77188 7.20937 4.6875 7.11562 4.6875 7.1039C4.6875 7.09219 4.60547 6.99844 4.50469 6.89766C4.40391 6.79688 4.29609 6.67734 4.26562 6.63281C4.23516 6.58828 4.15078 6.49219 4.07812 6.42188C4.00547 6.35156 3.92109 6.25547 3.89062 6.21094C3.85781 6.1664 3.76406 6.06094 3.67969 5.97656C3.59531 5.89219 3.51328 5.79609 3.49453 5.75859C3.47578 5.72344 3.45234 5.69531 3.44063 5.69531C3.43125 5.69531 3.42188 5.68359 3.42188 5.67188C3.42188 5.65547 5.60156 5.64844 9.91406 5.64844C14.2266 5.64844 16.4063 5.65547 16.4063 5.67188ZM12.6562 9.88125C12.6562 9.88828 12.6141 9.93516 12.5625 9.98437C12.5109 10.0336 12.4688 10.0852 12.4688 10.0992C12.4688 10.1109 12.3867 10.2047 12.2859 10.3055C12.1852 10.4062 12.0773 10.5258 12.0469 10.5703C12.0164 10.6148 11.932 10.7109 11.8594 10.7812C11.7867 10.8516 11.7023 10.9477 11.6719 10.9922C11.6414 11.0367 11.557 11.1328 11.4844 11.2031C11.4117 11.2734 11.3273 11.3695 11.2969 11.4141C11.2664 11.4586 11.1586 11.5781 11.0578 11.6789C10.957 11.7797 10.875 11.8734 10.875 11.8852C10.875 11.8992 10.8047 11.9789 10.7156 12.0656C10.6289 12.1523 10.5328 12.2602 10.5 12.3047C10.4695 12.3492 10.3852 12.4453 10.3125 12.5156C10.2398 12.5859 10.1555 12.682 10.125 12.7266C10.0922 12.7711 10.0312 12.8438 9.98906 12.8859L9.91172 12.9633L9.80859 12.8531C9.75 12.7922 9.70312 12.7336 9.70312 12.7219C9.70312 12.7102 9.63281 12.6305 9.54375 12.5437C9.45703 12.457 9.36094 12.3492 9.32813 12.3047C9.29531 12.2602 9.19922 12.1523 9.1125 12.0656C9.02344 11.9789 8.95313 11.8992 8.95313 11.8852C8.95313 11.8734 8.86875 11.7773 8.76563 11.6742C8.6625 11.5687 8.57813 11.475 8.57813 11.4633C8.57813 11.4516 8.49609 11.3578 8.39531 11.257C8.29453 11.1562 8.18672 11.0367 8.15625 10.9922C8.12578 10.9477 8.04141 10.8516 7.96875 10.7812C7.89609 10.7109 7.81172 10.6148 7.78125 10.5703C7.74844 10.5258 7.65234 10.418 7.56563 10.3312C7.47656 10.2445 7.40625 10.1648 7.40625 10.1508C7.40625 10.1391 7.35469 10.0758 7.28906 10.0102C7.22578 9.94453 7.17188 9.88594 7.17188 9.87891C7.17188 9.87187 8.40703 9.86719 9.91406 9.86719C11.4234 9.86719 12.6562 9.87422 12.6562 9.88125Z" fill="#172023"/>
</svg>
